<?xml version="1.0" standalone="no"?>
<!DOCTYPE svg PUBLIC "-//W3C//DTD SVG 20010904//EN"
 "http://www.w3.org/TR/2001/REC-SVG-20010904/DTD/svg10.dtd">
<svg version="1.0" xmlns="http://www.w3.org/2000/svg"
 width="500.000000pt" height="500.000000pt" viewBox="0 0 500.000000 500.000000"
 preserveAspectRatio="xMidYMid meet">
<metadata>
Created by potrace 1.11, written by Peter Selinger 2001-2013
</metadata>
<g transform="translate(0.000000,500.000000) scale(0.100000,-0.100000)"
fill="#000000" stroke="none">
<path d="M2339 4476 c-2 -2 -35 -6 -74 -9 -103 -9 -138 -15 -264 -43 -632
-142 -1089 -550 -1250 -1119 -60 -215 -79 -515 -39 -643 94 -307 429 -449 723
-307 169 81 249 224 270 479 9 121 44 207 124 306 121 150 309 262 501 297 85
15 278 7 365 -16 90 -24 202 -74 272 -122 111 -76 236 -222 279 -325 9 -22 22
-52 29 -69 26 -60 46 -168 49 -264 4 -122 -21 -251 -70 -356 -13 -30 -24 -56
-24 -59 0 -5 -54 -87 -72 -111 -114 -147 -271 -252 -443 -295 -106 -27 -127
-29 -360 -29 l-200 -1 2 -472 c1 -260 2 -476 2 -479 1 -4 110 -9 244 -12 251
-4 280 -8 409 -57 113 -42 259 -155 351 -270 40 -51 113 -205 133 -280 18 -72
23 -104 27 -170 l3 -45 508 -3 509 -2 -6 113 c-5 94 -18 200 -41 332 -13 73
-75 294 -96 340 -5 11 -21 49 -36 85 -54 132 -164 319 -239 404 -14 16 -25 31
-25 33 0 3 20 30 44 61 245 320 384 749 391 1207 4 251 -18 414 -85 623 -33
104 -43 127 -106 257 -121 249 -277 442 -513 638 -52 42 -206 141 -292 186
-158 82 -332 140 -534 178 -70 13 -455 29 -466 19z"/>
</g>
</svg>
